<svg xmlns="http://www.w3.org/2000/svg" viewBox="0 0 800 600"><defs><linearGradient id="a" x1="0%" x2="100%" y1="0%" y2="100%"><stop offset="0%" style="stop-color:#3b82f6;stop-opacity:.8"/><stop offset="50%" style="stop-color:#8b5cf6;stop-opacity:.8"/><stop offset="100%" style="stop-color:#ec4899;stop-opacity:.8"/></linearGradient><filter id="b"><feGaussianBlur in="SourceGraphic" stdDeviation="1.5"/></filter></defs><path fill="#0f172a" d="M0 0h800v600H0z"/><path stroke="#60a5fa" d="M50 0v600M100 0v600M150 0v600M200 0v600M250 0v600M300 0v600M350 0v600M400 0v600M450 0v600M500 0v600M550 0v600M600 0v600M650 0v600M700 0v600M750 0v600M0 50h800M0 100h800M0 150h800M0 200h800M0 250h800M0 300h800M0 350h800M0 400h800M0 450h800M0 500h800M0 550h800" opacity=".15"/><ellipse cx="400" cy="300" fill="url(#a)" filter="url(#b)" opacity=".4" rx="280" ry="220"/><ellipse cx="200" cy="150" fill="#8b5cf6" filter="url(#b)" opacity=".2" rx="150" ry="120"/><ellipse cx="700" cy="480" fill="#ec4899" filter="url(#b)" opacity=".2" rx="180" ry="140"/><circle cx="400" cy="300" r="15" fill="#60a5fa" stroke="#3b82f6" stroke-width="2"/><text x="400" y="308" fill="#fff" font-size="10" font-weight="bold" text-anchor="middle">Hub</text><circle cx="150" cy="120" r="12" fill="#8b5cf6" stroke="#7c3aed" stroke-width="2"/><circle cx="250" cy="80" r="12" fill="#8b5cf6" stroke="#7c3aed" stroke-width="2"/><circle cx="550" cy="100" r="12" fill="#8b5cf6" stroke="#7c3aed" stroke-width="2"/><circle cx="650" cy="160" r="12" fill="#8b5cf6" stroke="#7c3aed" stroke-width="2"/><circle cx="700" cy="280" r="12" fill="#8b5cf6" stroke="#7c3aed" stroke-width="2"/><circle cx="680" cy="420" r="12" fill="#8b5cf6" stroke="#7c3aed" stroke-width="2"/><circle cx="600" cy="520" r="12" fill="#8b5cf6" stroke="#7c3aed" stroke-width="2"/><circle cx="400" cy="550" r="12" fill="#8b5cf6" stroke="#7c3aed" stroke-width="2"/><circle cx="200" cy="520" r="12" fill="#8b5cf6" stroke="#7c3aed" stroke-width="2"/><circle cx="120" cy="420" r="12" fill="#8b5cf6" stroke="#7c3aed" stroke-width="2"/><circle cx="100" cy="280" r="12" fill="#8b5cf6" stroke="#7c3aed" stroke-width="2"/><circle cx="130" cy="150" r="12" fill="#8b5cf6" stroke="#7c3aed" stroke-width="2"/><path stroke="#60a5fa" stroke-width="1.5" d="M400 300 150 120m250 180L250 80m150 220 150-200M400 300l250-140M400 300l300-20m-300 20 280 120M400 300l200 220M400 300v250m0-250L200 520m200-220L120 420m280-120-300-20m300 20L130 150m20-30 100-40m0 0 300 20m0 0 100 60m0 0 50 120m0 0-20 140m0 0-80 100m0 0-200 30m0 0-200-30m0 0-80-100m0 0-20-140m0 0 30-130" opacity=".6"/><g text-anchor="middle"><text x="400" y="30" fill="#60a5fa" font-size="18" font-weight="bold">Mesh Network Topology</text><text x="400" y="560" fill="#94a3b8" font-size="12">Distributed peer-to-peer mesh network visualization</text></g><rect width="120" height="80" x="20" y="20" fill="#1e293b" stroke="#60a5fa" opacity=".8" rx="4"/><text x="30" y="40" fill="#60a5fa" font-size="11" font-weight="bold">Network Stats</text><text x="30" y="58" fill="#cbd5e1" font-size="10">Nodes: 13</text><text x="30" y="73" fill="#cbd5e1" font-size="10">Connections: 24</text><text x="30" y="88" fill="#cbd5e1" font-size="10">Latency: 2.3ms</text></svg>